<?xml version="1.0" encoding="UTF-8"?>
<svg id="blob" xmlns="http://www.w3.org/2000/svg" viewBox="0 0 1920 1080">
  <defs>
    <style>
      .cls-1 {
        fill: #fff;
      }

      .cls-2 {
        fill: #f400dc;
      }
    </style>
  </defs>
  <rect x="456.75" y="434.5" width="1017" height="222"/>
  <g id="titel-name">
    <path id="j" class="cls-1" d="m532.33,579.18v-21.82c0-1.91.67-3.54,2.01-4.88,1.34-1.34,2.97-2.01,4.88-2.01s3.54.67,4.88,2.01c1.34,1.34,2.01,2.97,2.01,4.88v21.98c0,1.86.68,3.45,2.05,4.76,1.37,1.31,3.04,1.97,5,1.97h13.95c1.91,0,3.57-.67,4.96-2.01,1.39-1.34,2.09-2.97,2.09-4.88v-81.29c0-1.91.66-3.54,1.97-4.88,1.31-1.34,2.9-2.01,4.76-2.01s3.5.74,4.92,2.21c1.42,1.48,2.13,3.15,2.13,5v80.96c0,5.8-2.11,10.72-6.32,14.77-4.21,4.05-9.05,6.07-14.52,6.07h-13.95c-5.74,0-10.65-2.05-14.72-6.15-4.07-4.1-6.11-9-6.11-14.68Z"/>
    <path id="a" class="cls-1" d="m647.61,550.3h27.03c1.48,0,3.61.33,6.41.98l-.16-9.76c0-1.91-.67-3.54-2.01-4.88-1.34-1.34-2.97-2.01-4.89-2.01h-26.22c-1.86,0-3.48-.68-4.85-2.05-1.37-1.37-2.05-2.98-2.05-4.84s.67-3.54,2.01-4.88c1.34-1.34,2.97-2.01,4.89-2.01h26.21c5.7,0,10.56,2,14.58,5.99,4.03,3.99,6.12,8.89,6.29,14.68l1.72,51.6c0,1.92-.68,3.54-2.05,4.88-1.37,1.34-2.98,2.01-4.84,2.01-1.97,0-3.64-.67-5-2.01-1.37-1.34-2.05-2.97-2.05-4.88l-11.67,6.89h-23.33c-5.81,0-10.73-2.02-14.79-6.07-4.05-4.05-6.08-8.97-6.08-14.77v-8.04c0-5.74,2.04-10.65,6.12-14.72,4.08-4.07,9-6.11,14.75-6.11Zm34.46,26.82l-.41-5.82c-.06-1.97-.74-3.61-2.05-4.92-1.31-1.31-2.93-1.97-4.84-1.97h-27.18c-1.92,0-3.55.67-4.89,2.01-1.34,1.34-2.01,2.97-2.01,4.88v7.71c0,1.86.68,3.47,2.05,4.84,1.37,1.37,2.98,2.05,4.84,2.05h19.46l15.03-8.78Z"/>
    <path id="y" class="cls-1" d="m798.11,541.03l-37.15,84.01c-1.26,3-3.45,4.5-6.56,4.5h-19.12c-1.91,0-3.54-.66-4.88-1.97s-2.01-2.95-2.01-4.92.67-3.53,2.01-4.84c1.34-1.31,2.97-1.97,4.88-1.97h14.77l9.43-21.9h-3.36c-3.12,0-5.37-1.61-6.74-4.83l-20.65-48.08v-13.29c0-1.91.66-3.54,1.97-4.88,1.31-1.34,2.9-2.01,4.76-2.01s3.57.67,4.96,2.01c1.39,1.34,2.09,2.97,2.09,4.88v10.26s18.13,42,18.13,42h4.79l18.72-41.85.03-10.57c0-1.8.7-3.4,2.09-4.79,1.39-1.39,3.05-2.09,4.96-2.09s3.47.68,4.84,2.05c1.37,1.37,2.05,2.98,2.05,4.84v13.45Z"/>
    <path id="d" class="cls-1" d="m986.95,530.45v-32.57c0-1.91.66-3.54,1.97-4.88,1.31-1.34,2.9-2.01,4.76-2.01s3.57.67,4.96,2.01c1.39,1.34,2.09,2.97,2.09,4.88v95.24c0,1.92-.68,3.54-2.05,4.88-1.37,1.34-2.98,2.01-4.84,2.01-1.97,0-3.61-.67-4.92-2.01-1.31-1.34-1.97-2.97-1.97-4.88v-3.04c-6.73,6.62-13.02,9.93-18.87,9.93h-11.73c-4.7,0-9.41-2.02-14.11-6.07l-5.74-4.84c-1.31-1.26-2.56-3.36-3.73-6.32-1.18-2.95-1.76-5.71-1.76-8.29v-28.05c0-3.12.66-6.14,1.97-9.06,1.31-2.92,2.84-5.13,4.59-6.6l5.66-4.84c4.05-3.5,8.8-5.25,14.27-5.25h9.93c5.41,0,10.34,1.92,14.77,5.74l4.76,4.02Zm-20.02,4.18h-9.6c-2.02,0-3.86.74-5.5,2.21l-4.43,3.86c-1.53,1.37-2.3,3.12-2.3,5.25v29.2c0,1.92.9,3.64,2.71,5.17l4.51,3.86c1.42,1.26,2.92,1.89,4.51,1.89h11.24c1.48,0,3.23-.85,5.25-2.54l10.91-9.02c1.8-1.58,2.71-3.55,2.71-5.91v-14.93c0-3.33-.96-5.8-2.87-7.38l-11.24-9.6c-1.48-1.37-3.45-2.05-5.91-2.05Z"/>
    <path id="e" class="cls-1" d="m1102.37,546.78v16.65c0,1.86-.68,3.47-2.05,4.84-1.37,1.37-2.98,2.05-4.84,2.05h-48.73v4.02c0,2.35,1.01,4.35,3.04,5.99l4.02,3.36c2.19,1.7,4.27,2.54,6.23,2.54h35.44c1.86,0,3.47.67,4.84,2.01,1.37,1.34,2.05,2.97,2.05,4.88s-.7,3.47-2.09,4.84c-1.39,1.37-2.99,2.05-4.8,2.05h-36.34c-2.41,0-4.94-.5-7.59-1.52-2.65-1.01-4.61-2.06-5.87-3.16l-6.15-5.41c-1.92-1.53-3.51-3.66-4.8-6.4-1.29-2.73-1.93-5.25-1.93-7.55v-31.58c0-1.8.7-4.24,2.09-7.3,1.39-3.06,3.16-5.44,5.29-7.14l5.74-4.51c3.77-3.06,7.96-4.59,12.55-4.59h19.36c4.87,0,9.46,2.02,13.78,6.07l5.17,4.92c3.72,3.34,5.58,8.31,5.58,14.93Zm-55.45-1.07v10.66h41.84v-9.6c0-2.57-.79-4.54-2.38-5.91l-4.02-3.53c-2.08-1.69-3.94-2.54-5.58-2.54h-17.31c-2.13,0-4.07.74-5.82,2.21l-4.02,3.36c-1.8,1.37-2.71,3.15-2.71,5.33Z"/>
    <path id="p" class="cls-1" d="m1235.91,593.12v-102.13h48.89c5.63,0,10.49,2.05,14.56,6.15,4.07,4.1,6.11,9,6.11,14.68v25.84c0,5.69-2.02,10.56-6.07,14.6-4.05,4.05-8.91,6.07-14.6,6.07h-34.95v34.78c0,1.92-.67,3.54-2.01,4.88-1.34,1.34-2.97,2.01-4.88,2.01s-3.64-.67-5-2.01c-1.37-1.34-2.05-2.97-2.05-4.88Zm13.95-48.56h34.95c1.86,0,3.47-.67,4.84-2.01,1.37-1.34,2.05-2.97,2.05-4.88v-25.84c0-1.91-.68-3.54-2.05-4.88-1.37-1.34-2.98-2.01-4.84-2.01h-34.95v39.62Z"/>
    <path id="i" class="cls-1" d="m1393,599.85h-42c-1.92,0-3.54-.67-4.88-2.01-1.34-1.34-2.01-2.97-2.01-4.88s.67-3.47,2.01-4.84c1.34-1.37,2.97-2.05,4.88-2.05h14.11v-51.43h-13.95c-1.92,0-3.54-.68-4.88-2.05-1.34-1.37-2.01-2.98-2.01-4.84s.67-3.57,2.01-4.96c1.34-1.39,2.97-2.09,4.88-2.09h21c1.91,0,3.54.7,4.88,2.09,1.34,1.39,2.01,3.05,2.01,4.96v58.32h13.78c1.91,0,3.57.67,4.96,2.01,1.39,1.34,2.09,2.97,2.09,4.88s-.68,3.54-2.05,4.88c-1.37,1.34-2.98,2.01-4.84,2.01Zm-28.05-114.93h7.22c1.91,0,3.54.67,4.88,2.01,1.34,1.34,2.01,2.97,2.01,4.88v5.91c0,1.92-.67,3.57-2.01,4.96-1.34,1.39-2.97,2.09-4.88,2.09h-7.38c-1.97,0-3.62-.71-4.96-2.13-1.34-1.42-1.98-3.01-1.93-4.76l.16-6.07c0-1.91.67-3.54,2.01-4.88,1.34-1.34,2.97-2.01,4.88-2.01Z"/>
  </g>
  <rect id="r1" class="cls-2" x="457" y="670" width="20" height="20"/>
  <rect id="r2" class="cls-2" x="482.33" y="670" width="20" height="20"/>
  <rect id="r3" class="cls-2" x="507.67" y="670" width="20" height="20"/>
  <rect id="r4" class="cls-2" x="533" y="670" width="20" height="20"/>
  <rect id="r5" class="cls-2" x="560" y="670" width="20" height="20"/>
  <rect id="r6" class="cls-2" x="585.33" y="670" width="20" height="20"/>
  <rect id="r7" class="cls-2" x="610.67" y="670" width="20" height="20"/>
  <rect id="r8" class="cls-2" x="636" y="670" width="20" height="20"/>
  <rect id="r9" class="cls-2" x="662" y="670" width="20" height="20"/>
  <rect id="r10" class="cls-2" x="687.33" y="670" width="20" height="20"/>
  <rect id="r11" class="cls-2" x="712.67" y="670" width="20" height="20"/>
  <rect id="r12" class="cls-2" x="738" y="670" width="20" height="20"/>
  <rect id="r13" data-name="13" class="cls-2" x="763.33" y="670" width="20" height="20"/>
  <rect id="r14" class="cls-2" x="788.67" y="670" width="20" height="20"/>
  <rect id="r15" class="cls-2" x="814" y="670" width="20" height="20"/>
  <rect id="r16" class="cls-2" x="841" y="670" width="20" height="20"/>
  <rect id="r17" class="cls-2" x="866.33" y="670" width="20" height="20"/>
  <rect id="r18" class="cls-2" x="891.67" y="670" width="20" height="20"/>
  <rect id="r19" class="cls-2" x="917" y="670" width="20" height="20"/>
  <rect id="r20" class="cls-2" x="943" y="670" width="20" height="20"/>
  <rect id="r21" class="cls-2" x="968.33" y="670" width="20" height="20"/>
  <rect id="r22" class="cls-2" x="993.67" y="670" width="20" height="20"/>
  <rect id="r23" class="cls-2" x="1019" y="670" width="20" height="20"/>
  <rect id="r24" class="cls-2" x="1044.33" y="670" width="20" height="20"/>
  <rect id="r25" class="cls-2" x="1069.67" y="670" width="20" height="20"/>
  <rect id="r26" class="cls-2" x="1095" y="670" width="20" height="20"/>
  <rect id="r27" class="cls-2" x="1122" y="670" width="20" height="20"/>
  <rect id="r28" class="cls-2" x="1147.33" y="670" width="20" height="20"/>
  <rect id="r29" class="cls-2" x="1172.67" y="670" width="20" height="20"/>
  <rect id="r30" class="cls-2" x="1198" y="670" width="20" height="20"/>
  <rect id="r31" class="cls-2" x="1224" y="670" width="20" height="20"/>
  <rect id="r32" class="cls-2" x="1249.33" y="670" width="20" height="20"/>
  <rect id="r33" class="cls-2" x="1274.67" y="670" width="20" height="20"/>
  <rect id="r34" class="cls-2" x="1300.33" y="670" width="20" height="20"/>
  <rect id="r35" class="cls-2" x="1325.67" y="670" width="20" height="20"/>
  <rect id="r36" class="cls-2" x="1351" y="670" width="20" height="20"/>
  <rect id="r37" class="cls-2" x="1377" y="670" width="20" height="20"/>
  <rect id="r38" class="cls-2" x="1402.33" y="670" width="20" height="20"/>
  <rect id="r39" class="cls-2" x="1427.67" y="670" width="20" height="20"/>
  <rect id="r40" class="cls-2" x="1453" y="670" width="20" height="20"/>
</svg>